# AST/ASF file generated using VICON BodyLanguage
# -----------------------------------------------
:version 1.10
:name VICON
:units
  mass 1.0
  length 0.45
  angle deg
:documentation
   .ast/.asf automatically generated from VICON data using
   VICON BodyBuilder and BodyLanguage model FoxedUp or BRILLIANT.MOD
:root
   order TX TY TZ RX RY RZ
   axis XYZ
   position 0 0 0  
   orientation 0 -0 0 
:bonedata
  begin
     id 1 
     name lhipjoint
     direction 0.515797 -0.759363 0.396637 
     length 2.47888 
     axis 0 -0 0  XYZ
  end
  begin
     id 2 
     name lfemur
     direction 0.34202 -0.939693 0  
     length 6.81885  
     axis 0 -0 20  XYZ
    dof rx ry rz
    limits (-160.0 20.0)
           (-70.0 70.0)
           (-60.0 70.0)
  end
  begin
     id 3 
     name ltibia
     direction 0.342037 -0.939687 0   
     length 7.89258   
     axis 0 -0 20   XYZ
    dof rx
    limits (-10.0 170.0)
  end
  begin
     id 4 
     name lfoot
     direction 0.173497 -0.476678 0.861787   
     length 2.51543   
     axis -90 -1.13533e-015 20   XYZ
    dof rx rz
    limits (-45.0 90.0)
           (-70.0 20.0)
  end
  begin
     id 5 
     name ltoes
     direction 1.53564e-011 -4.21897e-011 1   
     length 1.21388   
     axis -90 -1.13533e-015 20   XYZ
    dof rx
    limits (-90.0 20.0)
  end
  begin
     id 6 
     name rhipjoint
     direction -0.489454 -0.772941 0.403729   
     length 2.43534  
     axis 0 -0 0  XYZ 
  end
  begin
     id 7 
     name rfemur
     direction -0.34202 -0.939693 0   
     length 7.10357   
     axis 0 -0 -20   XYZ
    dof rx ry rz
    limits (-160.0 20.0)
           (-70.0 70.0)
           (-70.0 60.0)
  end
  begin
     id 8 
     name rtibia
     direction -0.34202 -0.939693 0   
     length 9.16127   
     axis 0 -0 -20   XYZ
    dof rx
    limits (-10.0 170.0)
 end
 begin
     id 9 
     name rfoot
     direction -0.270974 -0.748671 0.605033   
     length 1.74894  
     axis -90 1.13533e-015 -20   XYZ
    dof rx rz
    limits (-45.0 90.0)
           (-20.0 70.0)
  end
  begin
     id 10 
     name rtoes
     direction -1.53557e-011 -4.21759e-011 1   
     length 0.787585   
     axis -90 1.13533e-015 -20   XYZ
    dof rx
    limits (-90.0 20.0)
  end
  begin
     id 11 
     name lowerback
     direction -0.0140249 0.999561 0.0260968   
     length 2.16963   
     axis 0 -0 0   XYZ
    dof rx ry rz
    limits (-20.0 45.0)
           (-30.0 30.0)
           (-30.0 30.0)
  end
  begin
     id 12 
     name upperback
     direction 0.00860018 0.999959 -0.002711   
     length 2.1726   
     axis 0 -0 0   XYZ
    dof rx ry rz
    limits (-20.0 45.0)
           (-30.0 30.0)
           (-30.0 30.0)
  end
  begin
     id 13 
     name thorax
     direction 0.015211 0.999782 -0.0143191   
     length 2.17061   
     axis 0 -0 0   XYZ
    dof rx ry rz
    limits (-20.0 45.0)
           (-30.0 30.0)
           (-30.0 30.0)
  end
  begin
     id 14 
     name lowerneck
     direction -0.0140143 0.999447 0.030145   
     length 2.26749   
     axis 0 -0 0   XYZ
    dof rx ry rz
    limits (-20.0 45.0)
           (-30.0 30.0)
           (-30.0 30.0)
  end
  begin
     id 15 
     name upperneck
     direction 0.118062 0.961438 -0.248392   
     length 2.22728   
     axis 0 -0 0   XYZ
    dof rx ry rz
    limits (-20.0 45.0)
           (-30.0 30.0)
           (-30.0 30.0)
  end
  begin
     id 16
     name head
     direction 0.0431885 0.9954 -0.085514  
     length 2.28786  
     axis 0 -0 0   XYZ
    dof rx ry rz
    limits (-20.0 45.0)
           (-30.0 30.0)
           (-30.0 30.0)
  end
  begin
     id 17 
     name lclavicle
     direction 0.912126 0.409548 0.0172323  
     length 4.31571  
     axis 0 -0 0   XYZ
    dof ry rz
    limits (-20.0 10.0)
           (0.0 20.0)
  end
  begin
     id 18 
     name lhumerus
     direction 1 -4.48977e-011 1.93091e-027   
     length 5.13658   
     axis 180 -30 -90   XYZ
    dof rx ry rz
    limits (-60.0 90.0)
           (-90.0 90.0)
           (-90.0 90.0)
  end
  begin
     id 19
     name lradius
     direction 1 -4.48916e-011 6.84018e-027   
     length 3.22473   
     axis 180 -30 -90   XYZ
    dof rx
    limits (-10.0 170.0)
  end
  begin
     id 20
     name lwrist
     direction 1 -4.48987e-011 7.01981e-027   
     length 1.61236   
     axis -4.37994e-015 90 90   XYZ
    dof ry
    limits (-180.0 0.0)
 end
  begin
     id 21 
     name lhand
     direction 1 -4.49037e-011 1.40335e-026   
     length 0.936406   
     axis -8.96029e-015 90 90   XYZ
    dof rx rz
    limits (-90.0 90.0)
           (-45.0 45.0)
  end
  begin
     id 22 
     name lfingers
     direction 1 -4.48886e-011 2.8104e-026   
     length 0.754955   
     axis -1.79203e-014 90 90   XYZ
    dof rx
    limits (0.0 90.0)
  end
  begin
     id 23
     name lthumb
     direction 0.707107 -6.34937e-011 0.707107   
     length 1.08397   
     axis -90 45 -4.48555e-014   XYZ
    dof rx rz
    limits (-45.0 45.0)
           (-45.0 45.0)
  end
  begin
     id 24 
     name rclavicle
     direction -0.947962 0.317997 0.0156638   
     length 4.86918  
     axis 0 -0 0   XYZ 
    dof ry rz
    limits (-10.0 20.0)
           (-20.0 0.0)
  end
  begin
     id 25 
     name rhumerus
     direction -1 -4.48951e-011 2.80534e-018  
     length 5.60911   
     axis 180 30 90   XYZ
    dof rx ry rz
    limits (-90.0 60.0)
           (-90.0 90.0)
           (-90.0 90.0)
  end
  begin
     id 26 
     name rradius
     direction -1 -4.4898e-011 2.11315e-027   
     length 3.38704   
     axis 180 30 90   XYZ
    dof rx
    limits (-10.0 170.0)
  end
  begin
     id 27 
     name rwrist
     direction -1 -4.48933e-011 7.02314e-027   
     length 1.69352   
     axis -4.37994e-015 -90 -90   XYZ
    dof ry
    limits (-180.0 0.0)
  end
  begin
     id 28
     name rhand
     direction -1 -4.48937e-011 1.40458e-026   
     length 0.755878   
     axis -8.96029e-015 -90 -90   XYZ
    dof rx rz
    limits (-90.0 90.0)
           (-45.0 45.0)
  end
  begin
     id 29
     name rfingers
     direction -1 -4.4901e-011 2.80737e-026   
     length 0.609409   
     axis -1.79203e-014 -90 -90   XYZ
    dof rx
    limits (0.0 90.0)
  end
  begin
     id 30
     name rthumb
     direction -0.707107 -6.34968e-011 0.707107   
     length 0.874992   
     axis -90 -45 4.48555e-014   XYZ
    dof rx rz
    limits (-45.0 45.0)
           (-45.0 45.0)
  end
:hierarchy
  begin
    root lhipjoint rhipjoint lowerback
    lhipjoint lfemur
    lfemur ltibia
    ltibia lfoot
    lfoot ltoes
    rhipjoint rfemur
    rfemur rtibia
    rtibia rfoot
    rfoot rtoes
    lowerback upperback
    upperback thorax
    thorax lowerneck lclavicle rclavicle
    lowerneck upperneck
    upperneck head
    lclavicle lhumerus
    lhumerus lradius
    lradius lwrist
    lwrist lhand lthumb
    lhand lfingers
    rclavicle rhumerus
    rhumerus rradius
    rradius rwrist
    rwrist rhand rthumb
    rhand rfingers
  end

#!OML:ASF C:\ViconDB\ViconDB\414\Spring2016\041811\Spring2016.ASF
:FULLY-SPECIFIED
:DEGREES
124
root 7.92134 16.8051 -1.30834 -167.509 -6.85698 177.827
lowerback 15.9519 0.0355878 -4.55522
upperback 0.0430307 -0.896564 0.176444
thorax -8.86314 -0.274396 2.99235
lowerneck -11.1438 -6.13754 -16.5406
upperneck 8.93581 -8.65915 20.5531
head 6.22389 -3.75665 8.6791
rclavicle 1.07313e-014 5.48521e-015
rhumerus -16.1334 17.6644 -80.289
rradius 114.642
rwrist -5.22524
rhand -36.8049 -16.6395
rfingers 7.12502
rthumb -9.88638 -46.3874
lclavicle 1.07313e-014 5.48521e-015
lhumerus -10.3945 -17.2741 64.8104
lradius 99.5823
lwrist -0.170688
lhand -36.5592 13.6487
lfingers 7.12502
lthumb -9.64938 43.4076
rfemur -12.927 -13.2281 17.6312
rtibia 46.1546
rfoot 0.885319 -13.2807
rtoes -2.089
lfemur -21.7605 -1.53855 -14.8103
ltibia 51.5021
lfoot -31.574 -5.44741
ltoes -21.3877
125
root 7.89109 16.9877 -1.64958 -168.002 -6.61941 177.824
lowerback 14.2882 0.0605955 -4.69324
upperback -0.296219 -0.766385 0.215592
thorax -8.29927 -0.198643 3.05662
lowerneck -10.6109 -6.04391 -16.5452
upperneck 10.2926 -8.75638 20.0533
head 6.53103 -3.8445 8.52954
rclavicle -1.15419e-014 5.34234e-015
rhumerus -14.4923 18.758 -77.9223
rradius 116.255
rwrist -6.12624
rhand -36.9984 -16.5698
rfingers 7.12502
rthumb -10.0731 -46.3087
lclavicle -1.15419e-014 5.34234e-015
lhumerus -8.47728 -16.0386 63.4092
lradius 100.436
lwrist -0.508232
lhand -36.3765 13.2095
lfingers 7.12502
lthumb -9.47312 42.9766
rfemur -10.4731 -13.2437 17.168
rtibia 44.668
rfoot -1.63142 -11.6789
rtoes -2.17258
lfemur -18.7296 -2.09883 -15.0297
ltibia 48.9731
lfoot -28.9748 -4.35424
ltoes -22.6599
126
root 7.86296 17.1923 -1.99691 -168.478 -6.10561 177.985
lowerback 12.511 0.151448 -4.85438
upperback -0.502483 -0.54463 0.320693
thorax -7.53003 -0.0885893 3.19063
lowerneck -10.4134 -5.87551 -16.488
upperneck 11.5718 -8.7177 19.614
head 6.8524 -3.85568 8.40213
rclavicle 1.40764e-014 -2.5842e-015
rhumerus -12.6414 19.6162 -75.6862
rradius 117.65
rwrist -6.3389
rhand -36.4711 -16.5036
rfingers 7.12502
rthumb -9.56439 -46.2666
lclavicle 1.40764e-014 -2.5842e-015
lhumerus -6.61648 -14.9736 61.8769
lradius 101.647
lwrist 0.970637
lhand -36.928 13.1327
lfingers 7.12502
lthumb -10.0052 42.8748
rfemur -8.48531 -12.9416 16.8546
rtibia 43.6372
rfoot -4.57145 -9.79905
rtoes -2.87262
lfemur -15.793 -2.47092 -15.0767
ltibia 46.4955
lfoot -25.8023 -3.58281
ltoes -23.498
127
root 7.83526 17.4081 -2.33312 -169.185 -5.67636 178.138
lowerback 11.3941 0.170361 -4.77466
upperback -0.747721 -0.436642 0.316851
thorax -7.16792 -0.0373268 3.10927
lowerneck -9.97284 -5.71384 -16.5238
upperneck 12.5167 -8.71723 19.4223
head 7.05376 -3.90226 8.37222
rclavicle -1.57785e-015 1.63252e-014
rhumerus -11.0005 20.5919 -73.376
rradius 118.998
rwrist -6.57078
rhand -36.2985 -16.5635
rfingers 7.12502
rthumb -9.39786 -46.334
lclavicle -1.57785e-015 1.63252e-014
lhumerus -4.93887 -13.529 59.9714
lradius 102.638
lwrist 1.06805
lhand -36.3816 13.6611
lfingers 7.12502
lthumb -9.47799 43.428
rfemur -6.66386 -12.7266 16.488
rtibia 42.9701
rfoot -7.63685 -7.61553
rtoes -4.02534
lfemur -12.8345 -2.96201 -15.1365
ltibia 44.1859
lfoot -22.1769 -2.86324
ltoes -25.3836
128
root 7.80542 17.6337 -2.65747 -169.938 -5.20672 178.265
lowerback 10.459 0.207656 -4.66004
upperback -0.86334 -0.316536 0.305792
thorax -6.76992 0.0123522 3.00353
lowerneck -9.67059 -5.53167 -16.4781
upperneck 13.1053 -8.60819 19.2303
head 7.14605 -3.88508 8.32871
rclavicle -9.00743e-016 1.00635e-014
rhumerus -9.23313 21.3412 -71.0378
rradius 120.332
rwrist -6.92425
rhand -35.7846 -16.3174
rfingers 7.12502
rthumb -8.90198 -46.1096
lclavicle -9.00743e-016 1.00635e-014
lhumerus -3.40857 -12.0144 58.2079
lradius 103.679
lwrist 1.68981
lhand -36.31 13.6338
lfingers 7.12502
lthumb -9.40889 43.4037
rfemur -5.19359 -12.626 16.024
rtibia 42.6124
rfoot -11.1158 -5.18646
rtoes -6.37555
lfemur -10.0777 -3.31868 -15.244
ltibia 41.99
lfoot -18.0454 -2.12972
ltoes -26.2785
129
root 7.77538 17.8754 -2.97763 -170.639 -4.74501 178.461
lowerback 9.72377 0.255747 -4.52662
upperback -0.985053 -0.187486 0.391233
thorax -6.49167 0.0708928 2.99263
lowerneck -9.55996 -5.36287 -16.213
upperneck 13.7045 -8.43416 18.6698
head 7.2385 -3.83086 8.11631
rclavicle -9.62863e-015 9.79014e-015
rhumerus -7.67315 22.0044 -68.6489
rradius 121.693
rwrist -7.28838
rhand -35.4551 -16.0878
rfingers 7.12502
rthumb -8.58399 -45.8933
lclavicle -9.62863e-015 9.79014e-015
lhumerus -2.06873 -10.4651 56.5617
lradius 104.779
lwrist 2.30181
lhand -36.2687 13.853
lfingers 7.12502
lthumb -9.36912 43.6248
rfemur -4.09883 -12.5313 15.7052
rtibia 42.4247
rfoot -14.7867 -2.09762
rtoes -8.15775
lfemur -7.65701 -3.55021 -15.2694
ltibia 39.9179
lfoot -13.1389 -1.34053
ltoes -26.5887
130
root 7.74648 18.1201 -3.29601 -171.252 -4.26307 178.579
lowerback 9.12686 0.286407 -4.42044
upperback -1.10358 -0.100296 0.419801
thorax -6.28473 0.109662 2.94631
lowerneck -9.49279 -5.25336 -16.25
upperneck 14.1183 -8.3642 18.6051
head 7.33977 -3.81664 8.12094
rclavicle -5.91384e-015 1.93815e-015
rhumerus -6.15361 22.4781 -66.3713
rradius 123.074
rwrist -8.44007
rhand -34.8338 -14.7647
rfingers 7.12502
rthumb -7.98438 -44.5939
lclavicle -5.91384e-015 1.93815e-015
lhumerus -1.14937 -8.84382 55.06
lradius 105.997
lwrist 2.25636
lhand -36.3148 14.3379
lfingers 7.12502
lthumb -9.41352 44.1077
rfemur -3.35067 -12.4992 15.3503
rtibia 42.3521
rfoot -18.4669 1.17888
rtoes -10.4371
lfemur -5.55858 -3.69021 -15.4165
ltibia 37.9166
lfoot -7.92918 -0.111696
ltoes -25.1474
131
root 7.7267 18.3683 -3.60949 -171.67 -3.82764 178.621
lowerback 8.38612 0.273407 -4.37457
upperback -1.11854 -0.0780364 0.362269
thorax -5.8807 0.109616 2.85286
lowerneck -9.69528 -5.17596 -16.0008
upperneck 14.5277 -8.31237 18.4053
head 7.47557 -3.78828 8.01872
rclavicle 1.39646e-014 -2.48481e-016
rhumerus -4.60742 22.8314 -64.4175
rradius 124.48
rwrist -8.98157
rhand -34.6538 -15.4045
rfingers 7.12502
rthumb -7.81059 -45.2403
lclavicle 1.39646e-014 -2.48481e-016
lhumerus -0.125365 -7.19172 53.3975
lradius 107.253
lwrist 3.44183
lhand -36.2135 14.6795
lfingers 7.12502
lthumb -9.3158 44.4536
rfemur -2.96134 -12.5653 15.0313
rtibia 42.3158
rfoot -21.6576 4.3761
rtoes -12.8604
lfemur -3.94941 -3.629 -15.5483
ltibia 36.0355
lfoot -2.37053 1.24677
ltoes -23.9662
132
root 7.70827 18.6168 -3.92053 -172.047 -3.45904 178.625
lowerback 8.07847 0.343947 -4.59515
upperback -1.3552 0.0142563 0.48349
thorax -5.96456 0.1725 3.09161
lowerneck -9.74283 -5.05802 -15.8529
upperneck 15.1444 -8.22765 18.0942
head 7.64197 -3.76757 7.9068
rclavicle -8.00108e-015 1.25234e-014
rhumerus -3.67793 23.2225 -62.4367
rradius 125.893
rwrist -9.20525
rhand -34.5742 -16.428
rfingers 7.12502
rthumb -7.73385 -46.2665
lclavicle -8.00108e-015 1.25234e-014
lhumerus 0.248756 -5.84832 52.3947
lradius 108.397
lwrist 4.5384
lhand -36.1578 14.8103
lfingers 7.12502
lthumb -9.26206 44.5868
rfemur -2.61967 -12.8609 14.6757
rtibia 42.3567
rfoot -24.2074 6.88916
rtoes -14.7674
lfemur -2.54445 -3.54566 -15.6823
ltibia 34.2582
lfoot 3.05395 2.59706
ltoes -20.7129
